<svg xmlns="http://www.w3.org/2000/svg" data-name="Layer 1" width="738.57785" height="506.29416" viewBox="0 0 738.57785 506.29416" xmlns:xlink="http://www.w3.org/1999/xlink"><path d="M474.02018,702.1619H460.09205a6.68516,6.68516,0,0,1-6.67764-6.6775V579.39881a6.68516,6.68516,0,0,1,6.67764-6.6775h13.92813a6.68516,6.68516,0,0,1,6.67764,6.6775V695.4844A6.68516,6.68516,0,0,1,474.02018,702.1619Z" transform="translate(-230.71108 -196.85292)" fill="#00adb5"/><path d="M439.86656,702.1619H425.93815a6.68516,6.68516,0,0,1-6.67763-6.6775V579.39881a6.68516,6.68516,0,0,1,6.67763-6.6775h13.92841a6.685,6.685,0,0,1,6.67749,6.6775V695.4844A6.685,6.685,0,0,1,439.86656,702.1619Z" transform="translate(-230.71108 -196.85292)" fill="#00adb5"/><circle cx="223.25596" cy="174.37148" r="55.45452" fill="#00adb5"/><path d="M485.30494,389.63c3.50718-.7945,7.872-1.78382,10.76527-4.92163a8.84311,8.84311,0,0,0,2.13407-7.15228,5.94869,5.94869,0,0,0-2.93123-4.401c-2.06076-1.14347-4.70871-.98411-7.32646.38154l-1.27694-21.61067-2.17088.1279L486,377.45988l1.6051-1.15859c1.861-1.3428,4.57564-2.37529,6.61255-1.245a3.82216,3.82216,0,0,1,1.83974,2.84585,6.68374,6.68374,0,0,1-1.5861,5.33172c-2.25164,2.44174-5.70106,3.38069-9.647,4.27537Z" transform="translate(-230.71108 -196.85292)" fill="#2f2e41"/><rect x="497.58092" y="350.52042" width="11.71244" height="2.17469" transform="translate(-289.30294 -92.63224) rotate(-11.17345)" fill="#2f2e41"/><rect x="461.312" y="357.6844" width="11.71244" height="2.17469" transform="matrix(0.98105, -0.19378, 0.19378, 0.98105, -291.37865, -99.52463)" fill="#2f2e41"/><path d="M467.60645,600.72363H402.95264a7.57572,7.57572,0,0,1-7.56739-7.56738V496.13379a56.31349,56.31349,0,0,1,56.24952-56.24951,57.90005,57.90005,0,0,1,57.834,57.83447V558.8623A41.90944,41.90944,0,0,1,467.60645,600.72363Z" transform="translate(-230.71108 -196.85292)" fill="#2f2e41"/><path d="M443.57086,346.81061c1.79017-5.36665,8.00837-7.43687,13.18105-7.59768,7.27136-.226,14.37052,2.35621,21.66459,1.20212,13.23169-2.09356,21.49166-14.84562,24.06616-27.05337,1.71715-8.14235,1.565-16.48929,1.3711-24.76321a1.65681,1.65681,0,0,0-2.70747-1.34272,26.49,26.49,0,0,0-10.70567,15.21048l3.16812.6553,1.66626-14.45119a1.653,1.653,0,0,0-1.09227-1.66176c-4.96317-1.7287-9.10075,2.17251-11.80128,5.86327-1.39853,1.91135-2.74038,3.99383-4.81852,5.23828a11.92114,11.92114,0,0,1-7.091,1.37328c-5.05618-.36551-9.84987-2.27608-14.803-3.22195a53.93221,53.93221,0,0,0-13.80183-.76734,58.03033,58.03033,0,0,0-25.82971,8.14935c-7.83772,4.72253-15.01313,11.47187-19.17288,19.7123-2.375,4.70483-3.66444,10.12022-2.35977,15.33526a15.5264,15.5264,0,0,0,8.82225,10.83069c1.94174.81291,2.998-2.2749,1.06939-3.08232-3.67373-1.538-6.005-5.1442-6.821-8.9415-.93261-4.33984.20925-8.83012,2.19762-12.71689,3.8722-7.56922,10.50017-13.86375,17.72467-18.2197a55.74589,55.74589,0,0,1,24.18981-7.80683,51.1496,51.1496,0,0,1,12.53762.54594c4.64544.77415,9.08931,2.43677,13.74509,3.17083,5.10944.80558,10.41154.097,14.06819-3.87894,2.68951-2.92437,6.01273-10.26463,11.075-8.50141l-1.09227-1.66176-1.66625,14.45118c-.20849,1.80814,2.70092,2.46194,3.16812.6553A23.79663,23.79663,0,0,1,503.30731,289.7l-2.70747-1.34272c.32148,13.71907.60932,28.88172-8.53495,40.12348-3.92287,4.82267-9.44351,8.35083-15.71751,8.913-7.06771.63335-14.00617-1.92522-21.08313-1.33433-6.11954.511-12.70347,3.46952-14.77571,9.68176-.66526,1.99436,2.41737,3.0628,3.08232,1.06938Z" transform="translate(-230.71108 -196.85292)" fill="#2f2e41"/><path d="M471.44378,395.56465c-.0084.1564-.01942.31331-.03564.47058a10.08992,10.08992,0,0,1-3.6708,6.8501l-11.5063,9.42306a10.16667,10.16667,0,0,1-14.289-1.42265l-28.88961-35.27619a10.16836,10.16836,0,0,1,1.42329-14.28895l11.50627-9.42241a10.1502,10.1502,0,0,1,14.2864,1.42251l28.8896,35.27619A10.08293,10.08293,0,0,1,471.44378,395.56465Z" transform="translate(-230.71108 -196.85292)" fill="#2f2e41"/><circle cx="204.0662" cy="177.38869" r="3.60527" fill="#fff"/><path d="M459.67624,378.644l-.00286.02322a6.26538,6.26538,0,0,1,4.917,6.88128L452.27249,486.46813a12.74791,12.74791,0,0,1-25.40055-1.71342,12.95474,12.95474,0,0,1,.09434-1.37521l12.318-100.91966a6.25885,6.25885,0,0,1,6.97071-5.45436Z" transform="translate(-230.71108 -196.85292)" fill="#00adb5"/><circle cx="639.38101" cy="72.99986" r="46.19684" fill="#e4e4e4"/><path d="M875.493,289.24543c-2.99455-.08315-6.72144-.18709-9.5926-2.28446a7.36675,7.36675,0,0,1-2.89869-5.50082,4.95559,4.95559,0,0,1,1.68514-4.07,6.39516,6.39516,0,0,1,6.04927-.87089l-2.445-17.86783,1.79484-.24592,2.87436,21.00592-1.49883-.68777c-1.73766-.797-4.123-1.2026-5.6052.05a3.1841,3.1841,0,0,0-1.04415,2.62281,5.568,5.568,0,0,0,2.157,4.1014c2.23437,1.63207,5.205,1.8426,8.57434,1.93681Z" transform="translate(-230.71108 -196.85292)" fill="#2f2e41"/><rect x="618.9466" y="63.33947" width="9.75714" height="1.81164" fill="#2f2e41"/><rect x="649.74449" y="63.33947" width="9.75714" height="1.81164" fill="#2f2e41"/><path d="M870.09215,342.85292a73,73,0,1,1,73-73A73.08254,73.08254,0,0,1,870.09215,342.85292Zm0-144a71,71,0,1,0,71,71A71.08041,71.08041,0,0,0,870.09215,198.85292Z" transform="translate(-230.71108 -196.85292)" fill="#3f3d56"/><circle cx="575.39603" cy="251.7334" r="36.81818" fill="#e4e4e4"/><circle cx="701.75967" cy="251.7334" r="36.81818" fill="#cacaca"/><path d="M823.992,455.93886a4.66953,4.66953,0,0,1-4.85352-4.42627c-.00756-.09278-.01367-.18555-.01855-.27881H793.0941c-.00488.09326-.011.186-.01855.27881a4.67534,4.67534,0,0,1-5.06983,4.42187,4.93639,4.93639,0,0,1-4.89868-5.00732v-.19336a9.51081,9.51081,0,0,1,9.5-9.5h27a9.51081,9.51081,0,0,1,9.5,9.5v.19336a4.93639,4.93639,0,0,1-4.89868,5.00732C824.13658,455.93739,824.06432,455.93886,823.992,455.93886Z" transform="translate(-230.71108 -196.85292)" fill="#fff"/><path d="M940.93321,468.97938a9.62146,9.62146,0,0,1-1.83789-.17822,9.43833,9.43833,0,0,1-6.06079-4.0166l-15.08545-22.39307a9.51078,9.51078,0,0,1,2.57129-13.18652l.16064-.1084a4.93841,4.93841,0,0,1,6.88916,1.26563,4.69034,4.69034,0,0,1-.83447,6.67529q-.10876.08716-.2207.1709l14.541,21.585q.11976-.07177.24122-.14014a4.69166,4.69166,0,0,1,6.5,1.73389,4.936,4.936,0,0,1-1.41553,6.86035l-.16113.1084A9.43147,9.43147,0,0,1,940.93321,468.97938Z" transform="translate(-230.71108 -196.85292)" fill="#fff"/><path d="M689.19578,703.14708h-457.294a1.19069,1.19069,0,0,1,0-2.38137h457.294a1.19069,1.19069,0,0,1,0,2.38137Z" transform="translate(-230.71108 -196.85292)" fill="#3f3d56"/></svg>