<?xml version="1.0" encoding="UTF-8" standalone="no"?>
<!-- Generator: Adobe Illustrator 21.0.0, SVG Export Plug-In . SVG Version: 6.00 Build 0)  -->

<svg
   xmlns:dc="http://purl.org/dc/elements/1.1/"
   xmlns:cc="http://creativecommons.org/ns#"
   xmlns:rdf="http://www.w3.org/1999/02/22-rdf-syntax-ns#"
   xmlns:svg="http://www.w3.org/2000/svg"
   xmlns="http://www.w3.org/2000/svg"
   xmlns:xlink="http://www.w3.org/1999/xlink"
   xmlns:sodipodi="http://sodipodi.sourceforge.net/DTD/sodipodi-0.dtd"
   xmlns:inkscape="http://www.inkscape.org/namespaces/inkscape"
   version="1.1"
   id="Layer_2"
   x="0px"
   y="0px"
   width="1000"
   height="111.33789"
   viewBox="0 0 1000 111.33789"
   xml:space="preserve"
   sodipodi:docname="TransMedia.svg"
   inkscape:version="0.92.3 (2405546, 2018-03-11)"><metadata
   id="metadata91"><rdf:RDF><cc:Work
       rdf:about=""><dc:format>image/svg+xml</dc:format><dc:type
         rdf:resource="http://purl.org/dc/dcmitype/StillImage" /><dc:title></dc:title></cc:Work></rdf:RDF></metadata><defs
   id="defs89"><linearGradient
     inkscape:collect="always"
     xlink:href="#linearGradient818"
     id="linearGradient1754"
     gradientUnits="userSpaceOnUse"
     gradientTransform="matrix(-0.3096639,-1.7562208,1.7562208,-0.3096639,109.22217,164.54004)"
     x1="0"
     y1="0"
     x2="1"
     y2="0"
     spreadMethod="pad" /><linearGradient
     id="linearGradient818"
     spreadMethod="pad"
     gradientTransform="matrix(-0.3096639,-1.7562208,1.7562208,-0.3096639,109.22217,164.54004)"
     gradientUnits="userSpaceOnUse"
     y2="0"
     x2="1"
     y1="0"
     x1="0"><stop
       id="stop812"
       offset="0"
       style="stop-opacity:1;stop-color:#0c6db6" /><stop
       id="stop814"
       offset="0.1"
       style="stop-opacity:1;stop-color:#0c6db6" /><stop
       id="stop816"
       offset="1"
       style="stop-opacity:1;stop-color:#64bc47" /></linearGradient><linearGradient
     inkscape:collect="always"
     xlink:href="#linearGradient842"
     id="linearGradient1756"
     gradientUnits="userSpaceOnUse"
     gradientTransform="matrix(-1.7688478,-0.4739632,0.4739632,-1.7688478,111.65576,163.92285)"
     x1="0"
     y1="0"
     x2="1"
     y2="0"
     spreadMethod="pad" /><linearGradient
     id="linearGradient842"
     spreadMethod="pad"
     gradientTransform="matrix(-1.7688478,-0.4739632,0.4739632,-1.7688478,111.65576,163.92285)"
     gradientUnits="userSpaceOnUse"
     y2="0"
     x2="1"
     y1="0"
     x1="0"><stop
       id="stop834"
       offset="0"
       style="stop-opacity:1;stop-color:#214497" /><stop
       id="stop836"
       offset="0.3"
       style="stop-opacity:1;stop-color:#214497" /><stop
       id="stop838"
       offset="0.9"
       style="stop-opacity:1;stop-color:#792e8f" /><stop
       id="stop840"
       offset="1"
       style="stop-opacity:1;stop-color:#792e8f" /></linearGradient><linearGradient
     inkscape:collect="always"
     xlink:href="#linearGradient864"
     id="linearGradient1758"
     gradientUnits="userSpaceOnUse"
     gradientTransform="matrix(-1.7688478,-0.4739632,0.4739632,-1.7688478,112.06201,162.3916)"
     x1="0"
     y1="0"
     x2="1"
     y2="0"
     spreadMethod="pad" /><linearGradient
     id="linearGradient864"
     spreadMethod="pad"
     gradientTransform="matrix(-1.7688478,-0.4739632,0.4739632,-1.7688478,112.06201,162.3916)"
     gradientUnits="userSpaceOnUse"
     y2="0"
     x2="1"
     y1="0"
     x1="0"><stop
       id="stop858"
       offset="0"
       style="stop-opacity:1;stop-color:#214497" /><stop
       id="stop860"
       offset="0.9"
       style="stop-opacity:1;stop-color:#a3258d" /><stop
       id="stop862"
       offset="1"
       style="stop-opacity:1;stop-color:#a3258d" /></linearGradient><linearGradient
     inkscape:collect="always"
     xlink:href="#linearGradient884"
     id="linearGradient1760"
     gradientUnits="userSpaceOnUse"
     gradientTransform="matrix(0.6391282,1.7560111,-1.7560111,0.6391282,111.54248,161.07129)"
     x1="0"
     y1="0"
     x2="1"
     y2="0"
     spreadMethod="pad" /><linearGradient
     id="linearGradient884"
     spreadMethod="pad"
     gradientTransform="matrix(0.6391282,1.7560111,-1.7560111,0.6391282,111.54248,161.07129)"
     gradientUnits="userSpaceOnUse"
     y2="0"
     x2="1"
     y1="0"
     x1="0"><stop
       id="stop880"
       offset="0"
       style="stop-opacity:1;stop-color:#ea118d" /><stop
       id="stop882"
       offset="1"
       style="stop-opacity:1;stop-color:#214497" /></linearGradient><linearGradient
     inkscape:collect="always"
     xlink:href="#linearGradient908"
     id="linearGradient1762"
     gradientUnits="userSpaceOnUse"
     gradientTransform="matrix(1.4231533,0,0,1.4231533,108.60498,162.09473)"
     x1="0"
     y1="0"
     x2="1"
     y2="0"
     spreadMethod="pad" /><linearGradient
     id="linearGradient908"
     spreadMethod="pad"
     gradientTransform="matrix(1.4231533,0,0,1.4231533,108.60498,162.09473)"
     gradientUnits="userSpaceOnUse"
     y2="0"
     x2="1"
     y1="0"
     x1="0"><stop
       id="stop900"
       offset="0"
       style="stop-opacity:1;stop-color:#d3e389" /><stop
       id="stop902"
       offset="0.25"
       style="stop-opacity:1;stop-color:#d3e389" /><stop
       id="stop904"
       offset="0.95"
       style="stop-opacity:1;stop-color:#81caa6" /><stop
       id="stop906"
       offset="1"
       style="stop-opacity:1;stop-color:#81caa6" /></linearGradient><linearGradient
     inkscape:collect="always"
     xlink:href="#linearGradient932"
     id="linearGradient1764"
     gradientUnits="userSpaceOnUse"
     gradientTransform="matrix(-1.4242144,-0.8222725,0.8222725,-1.4242144,108.66553,162.00098)"
     x1="0"
     y1="0"
     x2="1"
     y2="0"
     spreadMethod="pad" /><linearGradient
     id="linearGradient932"
     spreadMethod="pad"
     gradientTransform="matrix(-1.4242144,-0.8222725,0.8222725,-1.4242144,108.66553,162.00098)"
     gradientUnits="userSpaceOnUse"
     y2="0"
     x2="1"
     y1="0"
     x1="0"><stop
       id="stop924"
       offset="0"
       style="stop-opacity:1;stop-color:#fdf389" /><stop
       id="stop926"
       offset="0.05"
       style="stop-opacity:1;stop-color:#fdf389" /><stop
       id="stop928"
       offset="0.85"
       style="stop-opacity:1;stop-color:#f7966c" /><stop
       id="stop930"
       offset="1"
       style="stop-opacity:1;stop-color:#f7966c" /></linearGradient><linearGradient
     inkscape:collect="always"
     xlink:href="#linearGradient952"
     id="linearGradient1766"
     gradientUnits="userSpaceOnUse"
     gradientTransform="matrix(1.8979366,0,0,1.8979366,108.12842,162.50488)"
     x1="0"
     y1="0"
     x2="1"
     y2="0"
     spreadMethod="pad" /><linearGradient
     id="linearGradient952"
     spreadMethod="pad"
     gradientTransform="matrix(1.8979366,0,0,1.8979366,108.12842,162.50488)"
     gradientUnits="userSpaceOnUse"
     y2="0"
     x2="1"
     y1="0"
     x1="0"><stop
       id="stop948"
       offset="0"
       style="stop-opacity:1;stop-color:#c9db2d" /><stop
       id="stop950"
       offset="1"
       style="stop-opacity:1;stop-color:#08a886" /></linearGradient><linearGradient
     inkscape:collect="always"
     xlink:href="#linearGradient972"
     id="linearGradient1768"
     gradientUnits="userSpaceOnUse"
     gradientTransform="matrix(-1.2942547,-1.2942547,1.2942547,-1.2942547,108.42432,162.63379)"
     x1="0"
     y1="0"
     x2="1"
     y2="0"
     spreadMethod="pad" /><linearGradient
     id="linearGradient972"
     spreadMethod="pad"
     gradientTransform="matrix(-1.2942547,-1.2942547,1.2942547,-1.2942547,108.42432,162.63379)"
     gradientUnits="userSpaceOnUse"
     y2="0"
     x2="1"
     y1="0"
     x1="0"><stop
       id="stop968"
       offset="0"
       style="stop-opacity:1;stop-color:#ede80f" /><stop
       id="stop970"
       offset="1"
       style="stop-opacity:1;stop-color:#f15c25" /></linearGradient><linearGradient
     inkscape:collect="always"
     xlink:href="#linearGradient994"
     id="linearGradient1770"
     gradientUnits="userSpaceOnUse"
     gradientTransform="matrix(0.8295181,1.4367739,-1.4367739,0.8295181,109.66553,163.93066)"
     x1="0"
     y1="0"
     x2="1"
     y2="0"
     spreadMethod="pad" /><linearGradient
     id="linearGradient994"
     spreadMethod="pad"
     gradientTransform="matrix(0.8295181,1.4367739,-1.4367739,0.8295181,109.66553,163.93066)"
     gradientUnits="userSpaceOnUse"
     y2="0"
     x2="1"
     y1="0"
     x1="0"><stop
       id="stop988"
       offset="0"
       style="stop-opacity:1;stop-color:#2bace2" /><stop
       id="stop990"
       offset="0.95"
       style="stop-opacity:1;stop-color:#214497" /><stop
       id="stop992"
       offset="1"
       style="stop-opacity:1;stop-color:#214497" /></linearGradient><linearGradient
     inkscape:collect="always"
     xlink:href="#linearGradient1016"
     id="linearGradient1772"
     gradientUnits="userSpaceOnUse"
     gradientTransform="matrix(-0.8908046,-1.6753789,1.6753789,-0.8908046,110.94873,164.5791)"
     x1="0"
     y1="0"
     x2="1"
     y2="0"
     spreadMethod="pad" /><linearGradient
     id="linearGradient1016"
     spreadMethod="pad"
     gradientTransform="matrix(-0.8908046,-1.6753789,1.6753789,-0.8908046,110.94873,164.5791)"
     gradientUnits="userSpaceOnUse"
     y2="0"
     x2="1"
     y1="0"
     x1="0"><stop
       id="stop1010"
       offset="0"
       style="stop-opacity:1;stop-color:#2e368f" /><stop
       id="stop1012"
       offset="0.9"
       style="stop-opacity:1;stop-color:#0756a5" /><stop
       id="stop1014"
       offset="1"
       style="stop-opacity:1;stop-color:#0756a5" /></linearGradient><linearGradient
     inkscape:collect="always"
     xlink:href="#linearGradient1038"
     id="linearGradient1774"
     gradientUnits="userSpaceOnUse"
     gradientTransform="matrix(1.0842685,1.5484766,-1.5484766,1.0842685,109.01514,164.60254)"
     x1="0"
     y1="0"
     x2="1"
     y2="0"
     spreadMethod="pad" /><linearGradient
     id="linearGradient1038"
     spreadMethod="pad"
     gradientTransform="matrix(1.0842685,1.5484766,-1.5484766,1.0842685,109.01514,164.60254)"
     gradientUnits="userSpaceOnUse"
     y2="0"
     x2="1"
     y1="0"
     x1="0"><stop
       id="stop1032"
       offset="0"
       style="stop-opacity:1;stop-color:#5ecbf5" /><stop
       id="stop1034"
       offset="0.85"
       style="stop-opacity:1;stop-color:#0c5dab" /><stop
       id="stop1036"
       offset="1"
       style="stop-opacity:1;stop-color:#0c5dab" /></linearGradient><linearGradient
     inkscape:collect="always"
     xlink:href="#linearGradient1062"
     id="linearGradient1776"
     gradientUnits="userSpaceOnUse"
     gradientTransform="matrix(1.0839576,-0.0948418,0.0948418,1.0839576,109.01318,163.78613)"
     x1="0"
     y1="0"
     x2="1"
     y2="0"
     spreadMethod="pad" /><linearGradient
     id="linearGradient1062"
     spreadMethod="pad"
     gradientTransform="matrix(1.0839576,-0.0948418,0.0948418,1.0839576,109.01318,163.78613)"
     gradientUnits="userSpaceOnUse"
     y2="0"
     x2="1"
     y1="0"
     x1="0"><stop
       id="stop1054"
       offset="0"
       style="stop-opacity:1;stop-color:#20a0db" /><stop
       id="stop1056"
       offset="0.3"
       style="stop-opacity:1;stop-color:#20a0db" /><stop
       id="stop1058"
       offset="0.9"
       style="stop-opacity:1;stop-color:#0e67b2" /><stop
       id="stop1060"
       offset="1"
       style="stop-opacity:1;stop-color:#0e67b2" /></linearGradient><clipPath
     id="clipPath1072"
     clipPathUnits="userSpaceOnUse"><path
       inkscape:connector-curvature="0"
       id="path1070"
       d="m 98.412,157.244 h 51.323 v 8.96 H 98.412 Z" /></clipPath></defs><sodipodi:namedview
   pagecolor="#ffffff"
   bordercolor="#666666"
   borderopacity="1"
   objecttolerance="10"
   gridtolerance="10"
   guidetolerance="10"
   inkscape:pageopacity="0"
   inkscape:pageshadow="2"
   inkscape:window-width="1366"
   inkscape:window-height="705"
   id="namedview87"
   showgrid="false"
   inkscape:zoom="0.220625"
   inkscape:cx="544.76299"
   inkscape:cy="76.328516"
   inkscape:window-x="-8"
   inkscape:window-y="-8"
   inkscape:window-maximized="1"
   inkscape:current-layer="Layer_2" />
<style
   type="text/css"
   id="style2">
	.st0{fill:#FFFFFF;}
	.st1{fill:#0767B0;}
	.st2{fill:#00A44F;}
	.st3{fill:#EA2127;}
	.st4{fill:#221F1F;}
</style>


<g
   id="g480"
   transform="matrix(0.39615655,0,0,0.39615655,379.6941,49.966128)"><g
     id="text1077"
     style="font-style:normal;font-variant:normal;font-weight:normal;font-stretch:normal;font-size:101.54186249px;line-height:1.25;font-family:'Avenir Next LT Pro';-inkscape-font-specification:'Avenir Next LT Pro';letter-spacing:0px;word-spacing:0px;fill:#214497;fill-opacity:1;stroke:none;stroke-width:0.52886379"
     transform="matrix(3.790667,0,0,3.7684209,191.74844,-214.96419)"
     aria-label="MEDIA"><path
       inkscape:connector-curvature="0"
       id="path956"
       style="font-style:normal;font-variant:normal;font-weight:500;font-stretch:normal;font-family:'Avenir Next LT Pro';-inkscape-font-specification:'Avenir Next LT Pro Medium';letter-spacing:-0.73631108px;fill:#214497;fill-opacity:1;stroke-width:0.52886379"
       d="M 63.26591,25.314897 H 47.628463 v 71.891638 h 9.748019 V 37.093753 h 0.203083 l 23.760796,60.112782 h 6.397137 L 111.59984,37.093753 h 0.20308 v 60.112782 h 10.05264 V 25.314897 H 106.21812 L 84.995868,80.55367 h -0.203084 z" /><path
       inkscape:connector-curvature="0"
       id="path958"
       style="font-style:normal;font-variant:normal;font-weight:500;font-stretch:normal;font-family:'Avenir Next LT Pro';-inkscape-font-specification:'Avenir Next LT Pro Medium';letter-spacing:-0.73631108px;fill:#214497;fill-opacity:1;stroke-width:0.52886379"
       d="m 145.79392,64.306972 h 33.91499 V 55.675914 H 145.79392 V 34.149039 h 36.04736 v -8.834142 h -46.1 v 71.891638 h 47.62313 v -8.935684 h -37.57049 z" /><path
       inkscape:connector-curvature="0"
       id="path960"
       style="font-style:normal;font-variant:normal;font-weight:500;font-stretch:normal;font-family:'Avenir Next LT Pro';-inkscape-font-specification:'Avenir Next LT Pro Medium';letter-spacing:-0.73631108px;fill:#214497;fill-opacity:1;stroke-width:0.52886379"
       d="m 206.14139,34.047497 h 12.59119 c 17.4652,0 30.05639,9.443393 30.05639,27.213219 0,17.160575 -12.59119,27.111677 -30.05639,27.111677 h -12.59119 z m -10.05265,63.159038 h 24.67468 c 18.37907,0 38.78899,-11.372688 38.78899,-35.945819 0,-25.487007 -20.40992,-35.945819 -38.78899,-35.945819 h -24.67468 z" /><path
       inkscape:connector-curvature="0"
       id="path962"
       style="font-style:normal;font-variant:normal;font-weight:500;font-stretch:normal;font-family:'Avenir Next LT Pro';-inkscape-font-specification:'Avenir Next LT Pro Medium';letter-spacing:-0.73631108px;fill:#214497;fill-opacity:1;stroke-width:0.52886379"
       d="m 282.75142,25.314897 h -10.05264 v 71.891638 h 10.05264 z" /><path
       inkscape:connector-curvature="0"
       id="path964"
       style="font-style:normal;font-variant:normal;font-weight:500;font-stretch:normal;font-family:'Avenir Next LT Pro';-inkscape-font-specification:'Avenir Next LT Pro Medium';letter-spacing:-0.73631108px;fill:#214497;fill-opacity:1;stroke-width:0.52886379"
       d="m 326.74271,36.992211 13.40353,33.711898 h -26.90859 z m -17.05903,42.54604 h 34.11807 l 7.31101,17.668284 h 11.37269 L 331.61672,25.314897 h -9.13876 L 291.3046,97.206535 h 11.16961 z" /></g><g
     inkscape:label="Layer 1"
     id="layer1-2"
     transform="matrix(15.963282,0,0,15.963282,-1193.6483,-1219.718)"><g
       transform="matrix(3.5277777,0,0,-3.5277777,-332.44373,654.84093)"
       id="g800"><g
         id="g802"><g
           id="g808"><g
             id="g810"><path
               d="m 108.132,162.92 v 0 h 1.896 l -0.947,1.643 z"
               style="fill:url(#linearGradient1754);stroke:none"
               id="path820"
               inkscape:connector-curvature="0" /></g></g></g></g><g
       transform="matrix(3.5277777,0,0,-3.5277777,-332.44373,654.84093)"
       id="g822"><g
         id="g824"><g
           id="g830"><g
             id="g832"><path
               d="m 110.028,162.92 h 1.895 0.001 l -0.948,1.643 z"
               style="fill:url(#linearGradient1756);stroke:none"
               id="path844"
               inkscape:connector-curvature="0" /></g></g></g></g><g
       transform="matrix(3.5277777,0,0,-3.5277777,-332.44373,654.84093)"
       id="g846"><g
         id="g848"><g
           id="g854"><g
             id="g856"><path
               d="m 110.028,162.92 0.948,-1.642 0.948,1.642 z"
               style="fill:url(#linearGradient1758);stroke:none"
               id="path866"
               inkscape:connector-curvature="0" /></g></g></g></g><g
       transform="matrix(3.5277777,0,0,-3.5277777,-332.44373,654.84093)"
       id="g868"><g
         id="g870"><g
           id="g876"><g
             id="g878"><path
               d="m 110.977,161.279 10e-4,-0.001 h 1.894 l -0.948,1.642 z"
               style="fill:url(#linearGradient1760);stroke:none"
               id="path886"
               inkscape:connector-curvature="0" /></g></g></g></g><g
       transform="matrix(3.5277777,0,0,-3.5277777,-332.44373,654.84093)"
       id="g888"><g
         id="g890"><g
           id="g896"><g
             id="g898"><path
               d="m 108.606,162.1 0.475,-0.822 0.947,1.642 z"
               style="fill:url(#linearGradient1762);stroke:none"
               id="path910"
               inkscape:connector-curvature="0" /></g></g></g></g><g
       transform="matrix(3.5277777,0,0,-3.5277777,-332.44373,654.84093)"
       id="g912"><g
         id="g914"><g
           id="g920"><g
             id="g922"><path
               d="m 107.184,161.278 h 1.897 v 0 l -0.475,0.822 z"
               style="fill:url(#linearGradient1764);stroke:none"
               id="path934"
               inkscape:connector-curvature="0" /></g></g></g></g><g
       transform="matrix(3.5277777,0,0,-3.5277777,-332.44373,654.84093)"
       id="g936"><g
         id="g938"><g
           id="g944"><g
             id="g946"><path
               d="m 108.131,162.92 0.475,-0.82 1.422,0.82 z"
               style="fill:url(#linearGradient1766);stroke:none"
               id="path954"
               inkscape:connector-curvature="0" /></g></g></g></g><g
       transform="matrix(3.5277777,0,0,-3.5277777,-332.44373,654.84093)"
       id="g956"><g
         id="g958"><g
           id="g964"><g
             id="g966"><path
               d="m 107.184,161.278 v 0 l 1.422,0.822 -0.475,0.82 z"
               style="fill:url(#linearGradient1768);stroke:none"
               id="path974"
               inkscape:connector-curvature="0" /></g></g></g></g><g
       transform="matrix(3.5277777,0,0,-3.5277777,-332.44373,654.84093)"
       id="g976"><g
         id="g978"><g
           id="g984"><g
             id="g986"><path
               d="m 110.028,166.204 v -1.641 h 0.948 z"
               style="fill:url(#linearGradient1770);stroke:none"
               id="path996"
               inkscape:connector-curvature="0" /></g></g></g></g><g
       transform="matrix(3.5277777,0,0,-3.5277777,-332.44373,654.84093)"
       id="g998"><g
         id="g1000"><g
           id="g1006"><g
             id="g1008"><path
               d="m 110.028,164.563 v -10e-4 -1.642 0 l 0.948,1.642 -0.001,10e-4 z"
               style="fill:url(#linearGradient1772);stroke:none"
               id="path1018"
               inkscape:connector-curvature="0" /></g></g></g></g><g
       transform="matrix(3.5277777,0,0,-3.5277777,-332.44373,654.84093)"
       id="g1020"><g
         id="g1022"><g
           id="g1028"><g
             id="g1030"><path
               d="m 109.081,164.563 h 0.947 v 1.642 z"
               style="fill:url(#linearGradient1774);stroke:none"
               id="path1040"
               inkscape:connector-curvature="0" /></g></g></g></g><g
       transform="matrix(3.5277777,0,0,-3.5277777,-332.44373,654.84093)"
       id="g1042"><g
         id="g1044"><g
           id="g1050"><g
             id="g1052"><path
               d="m 109.081,164.563 0.947,-1.643 v 0 1.642 l -0.011,10e-4 z"
               style="fill:url(#linearGradient1776);stroke:none"
               id="path1064"
               inkscape:connector-curvature="0" /></g></g></g></g><g
       transform="matrix(3.5277777,0,0,-3.5277777,-332.44373,654.84093)"
       id="g1066"><g
         id="g1068"
         clip-path="url(#clipPath1072)"><g
           id="g1074"
           transform="translate(98.4126,166.0576)"><path
             d="m 0,0 v -1.255 h 1.262 v -3.524 h 1.485 v 3.524 H 4.022 V 0 Z"
             style="fill:#214497;fill-opacity:1;fill-rule:nonzero;stroke:none"
             id="path1076"
             inkscape:connector-curvature="0" /></g><g
           id="g1078"
           transform="translate(121.1675,163.7754)"><path
             d="m 0,0 c -0.273,0.235 -0.653,0.386 -1.106,0.5 -0.123,0.031 -0.246,0.07 -0.363,0.121 -0.098,0.042 -0.208,0.089 -0.271,0.178 -0.039,0.057 -0.036,0.127 -0.004,0.185 0.036,0.069 0.101,0.1 0.175,0.119 0.078,0.019 0.185,0.015 0.265,0 0.089,-0.018 0.176,-0.045 0.261,-0.077 0.196,-0.076 0.38,-0.183 0.554,-0.303 L -0.343,0.62 0.36,1.638 0.229,1.741 C -0.248,2.126 -0.84,2.342 -1.521,2.342 H -1.525 C -2.011,2.342 -2.441,2.2 -2.753,1.934 -3.063,1.671 -3.25,1.285 -3.25,0.837 V 0.828 0.819 0.804 c 0,-0.483 0.177,-0.817 0.47,-1.046 0.292,-0.227 0.687,-0.356 1.131,-0.465 0.118,-0.028 0.241,-0.055 0.352,-0.11 0.106,-0.051 0.241,-0.147 0.241,-0.282 v -0.008 c -0.002,-0.066 -0.024,-0.113 -0.091,-0.157 -0.068,-0.044 -0.187,-0.081 -0.37,-0.081 -0.312,0 -0.66,0.184 -1.044,0.496 l -0.136,0.114 -0.798,-0.957 0.128,-0.117 c 0.565,-0.504 1.284,-0.752 1.995,-0.752 0.506,0 0.954,0.129 1.282,0.395 0.328,0.264 0.519,0.667 0.519,1.151 v 0.027 C 0.43,-0.558 0.272,-0.233 0,0"
             style="fill:#214497;fill-opacity:1;fill-rule:nonzero;stroke:none"
             id="path1080"
             inkscape:connector-curvature="0" /></g><g
           id="g1082"
           transform="translate(115.7871,166.0557)"><path
             d="M 0,0 V -2.149 L -1.636,0 h -1.163 v -4.777 h 1.484 v 2.236 L 0.39,-4.777 H 1.485 V 0 Z"
             style="fill:#214497;fill-opacity:1;fill-rule:nonzero;stroke:none"
             id="path1084"
             inkscape:connector-curvature="0" /></g><g
           id="g1086"
           transform="translate(104.4458,164.8213)"><path
             d="M 0,0 H 0.492 C 0.705,-0.006 0.852,-0.048 0.939,-0.118 1.026,-0.188 1.077,-0.294 1.077,-0.464 1.072,-0.607 1.029,-0.709 0.943,-0.783 0.857,-0.858 0.717,-0.907 0.508,-0.911 H 0 Z m 2.63,-3.543 -0.849,1.731 c 0.353,0.199 0.623,0.524 0.726,0.926 0.038,0.148 0.055,0.308 0.055,0.46 v 0.024 0.003 c 0,0.453 -0.148,0.85 -0.431,1.132 C 1.799,1.067 1.31,1.236 0.715,1.236 h -2.2 V -3.543 H 0 v 1.415 h 0.209 c 0.03,0 0.06,0.001 0.09,0.002 l 0.682,-1.417 z"
             style="fill:#214497;fill-opacity:1;fill-rule:nonzero;stroke:none"
             id="path1088"
             inkscape:connector-curvature="0" /></g></g></g></g></g></svg>