<svg id="visual" viewBox="0 0 900 600" width="900" height="600" xmlns="http://www.w3.org/2000/svg" xmlns:xlink="http://www.w3.org/1999/xlink" version="1.1"><path d="M0 223L15 204C30 185 60 147 90 141C120 135 150 161 180 155C210 149 240 111 270 95C300 79 330 85 360 108C390 131 420 171 450 174C480 177 510 143 540 132C570 121 600 133 630 130C660 127 690 109 720 114C750 119 780 147 810 148C840 149 870 123 885 110L900 97L900 0L885 0C870 0 840 0 810 0C780 0 750 0 720 0C690 0 660 0 630 0C600 0 570 0 540 0C510 0 480 0 450 0C420 0 390 0 360 0C330 0 300 0 270 0C240 0 210 0 180 0C150 0 120 0 90 0C60 0 30 0 15 0L0 0Z" fill="#7cffd9"></path><path d="M0 259L15 238C30 217 60 175 90 166C120 157 150 181 180 180C210 179 240 153 270 143C300 133 330 139 360 158C390 177 420 209 450 207C480 205 510 169 540 163C570 157 600 181 630 183C660 185 690 165 720 165C750 165 780 185 810 184C840 183 870 161 885 150L900 139L900 95L885 108C870 121 840 147 810 146C780 145 750 117 720 112C690 107 660 125 630 128C600 131 570 119 540 130C510 141 480 175 450 172C420 169 390 129 360 106C330 83 300 77 270 93C240 109 210 147 180 153C150 159 120 133 90 139C60 145 30 183 15 202L0 221Z" fill="#67ffd3"></path><path d="M0 337L15 330C30 323 60 309 90 301C120 293 150 291 180 288C210 285 240 281 270 297C300 313 330 349 360 356C390 363 420 341 450 324C480 307 510 295 540 292C570 289 600 295 630 293C660 291 690 281 720 285C750 289 780 307 810 309C840 311 870 297 885 290L900 283L900 137L885 148C870 159 840 181 810 182C780 183 750 163 720 163C690 163 660 183 630 181C600 179 570 155 540 161C510 167 480 203 450 205C420 207 390 175 360 156C330 137 300 131 270 141C240 151 210 177 180 178C150 179 120 155 90 164C60 173 30 215 15 236L0 257Z" fill="#4fffcc"></path><path d="M0 361L15 356C30 351 60 341 90 333C120 325 150 319 180 312C210 305 240 297 270 311C300 325 330 361 360 374C390 387 420 377 450 362C480 347 510 327 540 322C570 317 600 327 630 331C660 335 690 333 720 340C750 347 780 363 810 362C840 361 870 343 885 334L900 325L900 281L885 288C870 295 840 309 810 307C780 305 750 287 720 283C690 279 660 289 630 291C600 293 570 287 540 290C510 293 480 305 450 322C420 339 390 361 360 354C330 347 300 311 270 295C240 279 210 283 180 286C150 289 120 291 90 299C60 307 30 321 15 328L0 335Z" fill="#2bffc5"></path><path d="M0 415L15 413C30 411 60 407 90 395C120 383 150 363 180 358C210 353 240 363 270 381C300 399 330 425 360 439C390 453 420 455 450 436C480 417 510 377 540 368C570 359 600 381 630 397C660 413 690 423 720 427C750 431 780 429 810 418C840 407 870 387 885 377L900 367L900 323L885 332C870 341 840 359 810 360C780 361 750 345 720 338C690 331 660 333 630 329C600 325 570 315 540 320C510 325 480 345 450 360C420 375 390 385 360 372C330 359 300 323 270 309C240 295 210 303 180 310C150 317 120 323 90 331C60 339 30 349 15 354L0 359Z" fill="#00f5ba"></path><path d="M0 499L15 493C30 487 60 475 90 458C120 441 150 419 180 413C210 407 240 417 270 433C300 449 330 471 360 481C390 491 420 489 450 476C480 463 510 439 540 436C570 433 600 451 630 457C660 463 690 457 720 456C750 455 780 459 810 456C840 453 870 443 885 438L900 433L900 365L885 375C870 385 840 405 810 416C780 427 750 429 720 425C690 421 660 411 630 395C600 379 570 357 540 366C510 375 480 415 450 434C420 453 390 451 360 437C330 423 300 397 270 379C240 361 210 351 180 356C150 361 120 381 90 393C60 405 30 409 15 411L0 413Z" fill="#00e1ab"></path><path d="M0 529L15 521C30 513 60 497 90 486C120 475 150 469 180 468C210 467 240 471 270 481C300 491 330 507 360 518C390 529 420 535 450 525C480 515 510 489 540 482C570 475 600 487 630 493C660 499 690 499 720 503C750 507 780 515 810 516C840 517 870 511 885 508L900 505L900 431L885 436C870 441 840 451 810 454C780 457 750 453 720 454C690 455 660 461 630 455C600 449 570 431 540 434C510 437 480 461 450 474C420 487 390 489 360 479C330 469 300 447 270 431C240 415 210 405 180 411C150 417 120 439 90 456C60 473 30 485 15 491L0 497Z" fill="#00ce9c"></path><path d="M0 601L15 601C30 601 60 601 90 601C120 601 150 601 180 601C210 601 240 601 270 601C300 601 330 601 360 601C390 601 420 601 450 601C480 601 510 601 540 601C570 601 600 601 630 601C660 601 690 601 720 601C750 601 780 601 810 601C840 601 870 601 885 601L900 601L900 503L885 506C870 509 840 515 810 514C780 513 750 505 720 501C690 497 660 497 630 491C600 485 570 473 540 480C510 487 480 513 450 523C420 533 390 527 360 516C330 505 300 489 270 479C240 469 210 465 180 466C150 467 120 473 90 484C60 495 30 511 15 519L0 527Z" fill="#00bb8e"></path></svg>