<svg id="visual" viewBox="0 0 900 600" width="900" height="600" xmlns="http://www.w3.org/2000/svg" xmlns:xlink="http://www.w3.org/1999/xlink" version="1.1"><path d="M0 79L21.5 79C43 79 86 79 128.8 76C171.7 73 214.3 67 257.2 68C300 69 343 77 385.8 77C428.7 77 471.3 69 514.2 67C557 65 600 69 642.8 74C685.7 79 728.3 85 771.2 82C814 79 857 67 878.5 61L900 55L900 0L878.5 0C857 0 814 0 771.2 0C728.3 0 685.7 0 642.8 0C600 0 557 0 514.2 0C471.3 0 428.7 0 385.8 0C343 0 300 0 257.2 0C214.3 0 171.7 0 128.8 0C86 0 43 0 21.5 0L0 0Z" fill="#f5e0cb"></path><path d="M0 151L21.5 151C43 151 86 151 128.8 149C171.7 147 214.3 143 257.2 148C300 153 343 167 385.8 167C428.7 167 471.3 153 514.2 152C557 151 600 163 642.8 165C685.7 167 728.3 159 771.2 151C814 143 857 135 878.5 131L900 127L900 53L878.5 59C857 65 814 77 771.2 80C728.3 83 685.7 77 642.8 72C600 67 557 63 514.2 65C471.3 67 428.7 75 385.8 75C343 75 300 67 257.2 66C214.3 65 171.7 71 128.8 74C86 77 43 77 21.5 77L0 77Z" fill="#fbf1e8"></path><path d="M0 277L21.5 282C43 287 86 297 128.8 312C171.7 327 214.3 347 257.2 353C300 359 343 351 385.8 339C428.7 327 471.3 311 514.2 316C557 321 600 347 642.8 349C685.7 351 728.3 329 771.2 314C814 299 857 291 878.5 287L900 283L900 125L878.5 129C857 133 814 141 771.2 149C728.3 157 685.7 165 642.8 163C600 161 557 149 514.2 150C471.3 151 428.7 165 385.8 165C343 165 300 151 257.2 146C214.3 141 171.7 145 128.8 147C86 149 43 149 21.5 149L0 149Z" fill="#fcf5ee"></path><path d="M0 475L21.5 476C43 477 86 479 128.8 484C171.7 489 214.3 497 257.2 498C300 499 343 493 385.8 489C428.7 485 471.3 483 514.2 483C557 483 600 485 642.8 487C685.7 489 728.3 491 771.2 487C814 483 857 473 878.5 468L900 463L900 281L878.5 285C857 289 814 297 771.2 312C728.3 327 685.7 349 642.8 347C600 345 557 319 514.2 314C471.3 309 428.7 325 385.8 337C343 349 300 357 257.2 351C214.3 345 171.7 325 128.8 310C86 295 43 285 21.5 280L0 275Z" fill="#fbf1e8"></path><path d="M0 601L21.5 601C43 601 86 601 128.8 601C171.7 601 214.3 601 257.2 601C300 601 343 601 385.8 601C428.7 601 471.3 601 514.2 601C557 601 600 601 642.8 601C685.7 601 728.3 601 771.2 601C814 601 857 601 878.5 601L900 601L900 461L878.5 466C857 471 814 481 771.2 485C728.3 489 685.7 487 642.8 485C600 483 557 481 514.2 481C471.3 481 428.7 483 385.8 487C343 491 300 497 257.2 496C214.3 495 171.7 487 128.8 482C86 477 43 475 21.5 474L0 473Z" fill="#f5e0cb"></path></svg>