<svg id="visual" viewBox="0 0 900 600" width="900" height="600" xmlns="http://www.w3.org/2000/svg" xmlns:xlink="http://www.w3.org/1999/xlink" version="1.1"><path d="M0 506L30 505.8C60 505.7 120 505.3 180 501.7C240 498 300 491 360 481.2C420 471.3 480 458.7 540 451.8C600 445 660 444 720 454.8C780 465.7 840 488.3 870 499.7L900 511L900 601L870 601C840 601 780 601 720 601C660 601 600 601 540 601C480 601 420 601 360 601C300 601 240 601 180 601C120 601 60 601 30 601L0 601Z" fill="#ef395a" stroke-linecap="round" stroke-linejoin="miter"></path></svg>